<?xml version="1.0" encoding="utf-8"?>
<!-- Generator: Adobe Illustrator 22.1.0, SVG Export Plug-In . SVG Version: 6.00 Build 0)  -->
<svg version="1.1" id="Layer_1" xmlns="http://www.w3.org/2000/svg" xmlns:xlink="http://www.w3.org/1999/xlink" x="0px" y="0px"
	 viewBox="0 0 205 200.8" style="enable-background:new 0 0 205 200.8;" xml:space="preserve">
<style type="text/css">
	.st0{fill:#FDD835;}
</style>
<path class="st0" d="M84.4,84.3c-5.7,0-10.2,5-10.2,11.1s4.6,11.1,10.2,11.1c5.7,0,10.2-5,10.2-11.1C94.7,89.3,90.1,84.3,84.4,84.3z
	 M120.9,84.3c-5.7,0-10.2,5-10.2,11.1s4.6,11.1,10.2,11.1c5.7,0,10.2-5,10.2-11.1S126.6,84.3,120.9,84.3z"/>
<path class="st0" d="M169.5,0.4h-134C24.2,0.4,15,9.6,15,21v135.2c0,11.4,9.2,20.6,20.5,20.6h113.4l-5.3-18.5l12.8,11.9l12.1,11.2
	l21.5,19V21C190,9.6,180.8,0.4,169.5,0.4z M130.9,131c0,0-3.6-4.3-6.6-8.1c13.1-3.7,18.1-11.9,18.1-11.9c-4.1,2.7-8,4.6-11.5,5.9
	c-5,2.1-9.8,3.5-14.5,4.3c-9.6,1.8-18.4,1.3-25.9-0.1c-5.7-1.1-10.6-2.7-14.7-4.3c-2.3-0.9-4.8-2-7.3-3.4c-0.3-0.2-0.6-0.3-0.9-0.5
	c-0.2-0.1-0.3-0.2-0.4-0.3c-1.8-1-2.8-1.7-2.8-1.7s4.8,8,17.5,11.8c-3,3.8-6.7,8.3-6.7,8.3c-22.1-0.7-30.5-15.2-30.5-15.2
	c0-32.2,14.4-58.3,14.4-58.3C73.5,46.7,87.2,47,87.2,47l1,1.2c-18,5.2-26.3,13.1-26.3,13.1s2.2-1.2,5.9-2.9
	c10.7-4.7,19.2-6,22.7-6.3c0.6-0.1,1.1-0.2,1.7-0.2c6.1-0.8,13-1,20.2-0.2c9.5,1.1,19.7,3.9,30.1,9.6c0,0-7.9-7.5-24.9-12.7L119,47
	c0,0,13.7-0.3,28.1,10.5c0,0,14.4,26.1,14.4,58.3C161.5,115.8,153,130.3,130.9,131z"/>
</svg>
