<?xml version="1.0" encoding="utf-8"?>
<!-- Generator: Adobe Illustrator 22.1.0, SVG Export Plug-In . SVG Version: 6.00 Build 0)  -->
<svg version="1.1" id="Ebene_1" xmlns="http://www.w3.org/2000/svg" xmlns:xlink="http://www.w3.org/1999/xlink" x="0px" y="0px"
	 viewBox="0 0 26.5 26.5" style="enable-background:new 0 0 26.5 26.5;" xml:space="preserve">
<style type="text/css">
	.st0{fill:none;stroke:#23272A;stroke-width:2.5;stroke-miterlimit:10;}
	.st1{fill:#23272A;}
</style>
<g id="Circle_1_">
	<circle id="Circle" class="st0" cx="13.3" cy="13.3" r="12"/>
</g>
<g id="Question_Mark">
	<path id="Mark" class="st1" d="M15.3,19.3c0,1.1-0.9,2-2,2s-2-0.9-2-2s0.9-2,2-2S15.3,18.1,15.3,19.3z"/>
	<path id="Question" class="st1" d="M14.8,16.3h-3c0-3,1.6-4,2.7-4.6c0.4-0.2,0.7-0.4,0.9-0.6c0.5-0.5,0.3-1.2,0.2-1.4
		c-0.3-0.7-1-1.4-2.3-1.4c-2.1,0-2.5,1.9-2.5,2.3l-3-0.4C8,8.5,9.5,5.3,13.3,5.3c2.3,0,4.3,1.3,5.1,3.2c0.7,1.7,0.4,3.5-0.8,4.7
		c-0.5,0.5-1.1,0.8-1.6,1.1C15.1,14.8,14.8,15.3,14.8,16.3z"/>
</g>
</svg>
